<svg width="100" height="100" viewBox="0 0 100 100" fill="none" xmlns="http://www.w3.org/2000/svg">
<path d="M32.2973 59.168H15.1551C14.9093 59.1678 14.6658 59.2161 14.4387 59.3102C14.2115 59.4042 14.0051 59.542 13.8313 59.7158C13.6575 59.8897 13.5196 60.0961 13.4256 60.3232C13.3316 60.5504 13.2833 60.7938 13.2834 61.0396V73.9295C13.2833 74.1753 13.3316 74.4188 13.4256 74.6459C13.5196 74.873 13.6575 75.0794 13.8313 75.2533C14.0051 75.4271 14.2115 75.5649 14.4387 75.659C14.6658 75.753 14.9093 75.8013 15.1551 75.8011H32.2973C32.5432 75.8013 32.7866 75.753 33.0138 75.659C33.2409 75.5649 33.4473 75.4271 33.6211 75.2533C33.7949 75.0794 33.9328 74.873 34.0268 74.6459C34.1208 74.4188 34.1691 74.1753 34.169 73.9295V61.0396C34.1691 60.7938 34.1208 60.5504 34.0268 60.3232C33.9328 60.0961 33.7949 59.8897 33.6211 59.7158C33.4473 59.542 33.2409 59.4042 33.0138 59.3102C32.7866 59.2161 32.5432 59.1678 32.2973 59.168ZM30.4257 72.0578H17.0267V62.9113H30.4257V72.0578Z" fill="white"/>
<path d="M23.7251 56.0471C25.1869 56.0473 26.6159 55.614 27.8314 54.8021C29.0469 53.9901 29.9943 52.8359 30.5538 51.4854C31.1133 50.1349 31.2598 48.6489 30.9746 47.2152C30.6895 45.7815 29.9856 44.4646 28.952 43.431C27.9184 42.3973 26.6014 41.6934 25.1677 41.4083C23.734 41.1232 22.248 41.2696 20.8975 41.8291C19.5471 42.3886 18.3929 43.336 17.5809 44.5515C16.7689 45.767 16.3356 47.196 16.3358 48.6578C16.3381 50.6169 17.1173 52.4951 18.5026 53.8803C19.8879 55.2656 21.7661 56.0449 23.7251 56.0471ZM23.7251 45.0107C24.4465 45.0105 25.1517 45.2243 25.7516 45.6249C26.3515 46.0255 26.8191 46.595 27.0953 47.2614C27.3715 47.9278 27.4439 48.6611 27.3033 49.3687C27.1627 50.0762 26.8154 50.7261 26.3054 51.2363C25.7954 51.7465 25.1456 52.0939 24.4381 52.2347C23.7306 52.3755 22.9973 52.3034 22.3308 52.0274C21.6643 51.7514 21.0946 51.2839 20.6939 50.6841C20.2931 50.0843 20.0791 49.3792 20.0791 48.6578C20.0806 47.6912 20.4651 46.7645 21.1485 46.0809C21.8319 45.3973 22.7585 45.0124 23.7251 45.0107Z" fill="white"/>
<path d="M95.1829 27.2299C93.1305 22.2353 86.3893 18.6246 78.1412 18.1476V16.1497C78.1389 14.4793 77.4744 12.878 76.2934 11.6967C75.1123 10.5154 73.511 9.85067 71.8406 9.84813H51.8695V1.87166C51.8695 1.37526 51.6723 0.8992 51.3213 0.548196C50.9703 0.197193 50.4943 0 49.9979 0C49.5015 0 49.0254 0.197193 48.6744 0.548196C48.3234 0.8992 48.1262 1.37526 48.1262 1.87166V9.84813H28.1551C26.4845 9.85039 24.883 10.515 23.7017 11.6963C22.5204 12.8776 21.8557 14.4791 21.8535 16.1497V18.1476C13.6064 18.6246 6.86524 22.2353 4.81283 27.2299C3.47586 27.4341 2.25593 28.1095 1.37334 29.1343C0.490739 30.1591 0.00364343 31.4657 0 32.8182V33.0845C0.00495078 34.3009 0.401087 35.4835 1.12987 36.4575C1.85866 37.4314 2.88144 38.1451 4.04706 38.493V81.3519C4.05048 83.1293 4.6399 84.8561 5.72402 86.2646C6.80815 87.6732 8.32648 88.685 10.0438 89.1433V98.1283C10.0438 98.6247 10.241 99.1008 10.592 99.4518C10.943 99.8028 11.4191 100 11.9155 100H18.8086C19.305 100 19.781 99.8028 20.132 99.4518C20.483 99.1008 20.6802 98.6247 20.6802 98.1283V89.4246H26.7765V98.1283C26.7765 98.6247 26.9737 99.1008 27.3247 99.4518C27.6757 99.8028 28.1517 100 28.6481 100H35.5412C36.0376 100 36.5136 99.8028 36.8646 99.4518C37.2156 99.1008 37.4128 98.6247 37.4128 98.1283V89.1176C39.1075 88.6422 40.6005 87.6263 41.665 86.2246C42.7294 84.8229 43.3071 83.112 43.3102 81.3519V59.293H48.1369C48.1598 59.7717 48.3662 60.2232 48.713 60.5539C49.0599 60.8845 49.5208 61.069 50 61.069C50.4792 61.069 50.9401 60.8845 51.287 60.5539C51.6339 60.2232 51.8402 59.7717 51.8631 59.293H56.5904V81.3519C56.5938 83.1293 57.1832 84.8561 58.2673 86.2646C59.3515 87.6732 60.8698 88.685 62.5872 89.1433V98.1283C62.5872 98.6247 62.7844 99.1008 63.1354 99.4518C63.4864 99.8028 63.9624 100 64.4588 100H71.3519C71.8483 100 72.3243 99.8028 72.6753 99.4518C73.0263 99.1008 73.2235 98.6247 73.2235 98.1283V89.4246H79.3198V98.1283C79.3198 98.6247 79.517 99.1008 79.868 99.4518C80.219 99.8028 80.695 100 81.1914 100H88.0845C88.5809 100 89.0569 99.8028 89.408 99.4518C89.759 99.1008 89.9561 98.6247 89.9561 98.1283V89.1187C91.651 88.6431 93.1442 87.6271 94.2088 86.2252C95.2735 84.8233 95.8513 83.1122 95.8545 81.3519V38.5241C97.0436 38.1924 98.0918 37.4817 98.84 36.4999C99.5883 35.5181 99.9955 34.3189 100 33.0845V32.8182C99.9962 31.4651 99.5085 30.158 98.625 29.1331C97.7416 28.1082 96.5206 27.4332 95.1829 27.2299ZM90.8428 27.1433H61.6963C64.1465 24.0364 69.8941 21.8364 76.2652 21.8353H76.2738C82.646 21.8364 88.3936 24.0364 90.8428 27.1433ZM23.7219 21.8353H23.7294C30.1016 21.8353 35.8492 24.0364 38.2984 27.1433H9.15294C11.6021 24.0364 17.3497 21.8364 23.7219 21.8353ZM3.74118 32.8182C3.74174 32.3059 3.94557 31.8148 4.30792 31.4526C4.67026 31.0905 5.1615 30.8869 5.67379 30.8866H41.7786C42.2907 30.8872 42.7817 31.0909 43.1438 31.453C43.5059 31.8151 43.7096 32.3061 43.7102 32.8182V33.0845C43.7096 33.5966 43.5059 34.0876 43.1438 34.4497C42.7817 34.8118 42.2907 35.0155 41.7786 35.016H5.67379C5.1615 35.0158 4.67026 34.8122 4.30792 34.4501C3.94557 34.0879 3.74174 33.5968 3.74118 33.0845V32.8182ZM16.9348 96.2567H13.785V89.4246H16.9348V96.2567ZM33.6674 96.2567H30.5176V89.4246H33.6674V96.2567ZM39.5647 81.3519C39.5636 82.4992 39.1075 83.5993 38.2965 84.4108C37.4855 85.2224 36.3858 85.6793 35.2385 85.6813H12.1176C10.9698 85.6799 9.86947 85.2233 9.05785 84.4117C8.24624 83.6 7.78965 82.4997 7.78823 81.3519V38.7594H39.5647V81.3519ZM51.8642 55.5497C51.8412 55.0711 51.6349 54.6196 51.288 54.2889C50.9412 53.9583 50.4803 53.7738 50.0011 53.7738C49.5218 53.7738 49.061 53.9583 48.7141 54.2889C48.3672 54.6196 48.1609 55.0711 48.138 55.5497H43.308V38.5241C44.497 38.1924 45.5453 37.4817 46.2935 36.4999C47.0417 35.5181 47.449 34.3189 47.4535 33.0845V32.8182C47.4498 31.4657 46.9627 30.1591 46.0801 29.1343C45.1975 28.1095 43.9776 27.4341 42.6406 27.2299C40.5861 22.2353 33.8481 18.6246 25.5968 18.1476V16.1497C25.599 15.4719 25.8693 14.8225 26.3486 14.3432C26.8279 13.864 27.4773 13.5937 28.1551 13.5914H71.8406C72.5188 13.5923 73.1689 13.8621 73.6483 14.3418C74.1277 14.8214 74.3973 15.4716 74.3979 16.1497V18.1476C66.1476 18.6246 59.4096 22.2353 57.3572 27.2299C56.0202 27.4341 54.8003 28.1095 53.9177 29.1343C53.0351 30.1591 52.548 31.4657 52.5444 32.8182V33.0845C52.5493 34.3008 52.9453 35.4833 53.6738 36.4572C54.4024 37.4312 55.425 38.1449 56.5904 38.493V55.5497H51.8642ZM69.4781 96.2567H66.3283V89.4246H69.4781V96.2567ZM86.2107 96.2567H83.061V89.4246H86.2107V96.2567ZM92.1091 81.3519C92.108 82.4998 91.6515 83.6003 90.8398 84.412C90.0281 85.2237 88.9276 85.6801 87.7797 85.6813H64.662C63.514 85.6801 62.4134 85.2237 61.6016 84.412C60.7897 83.6004 60.333 82.4999 60.3316 81.3519V38.7594H92.1091V81.3519ZM96.2545 33.0845C96.2537 33.5967 96.0498 34.0877 95.6875 34.4497C95.3252 34.8118 94.8341 35.0155 94.3219 35.016H58.2171C57.7049 35.0158 57.2138 34.8122 56.8516 34.45C56.4894 34.0878 56.2858 33.5967 56.2856 33.0845V32.8182C56.2858 32.306 56.4894 31.8149 56.8516 31.4527C57.2138 31.0905 57.7049 30.8869 58.2171 30.8866H94.3219C94.8341 30.8872 95.3252 31.0908 95.6875 31.4529C96.0498 31.815 96.2537 32.306 96.2545 32.8182V33.0845Z" fill="white"/>
<path d="M67.6984 75.8011H84.8407C85.0865 75.8013 85.3299 75.753 85.5571 75.659C85.7842 75.5649 85.9906 75.4271 86.1644 75.2533C86.3382 75.0794 86.4761 74.873 86.5701 74.6459C86.6641 74.4188 86.7125 74.1753 86.7123 73.9295V61.0396C86.7125 60.7938 86.6641 60.5504 86.5701 60.3232C86.4761 60.0961 86.3382 59.8897 86.1644 59.7158C85.9906 59.542 85.7842 59.4042 85.5571 59.3102C85.3299 59.2161 85.0865 59.1678 84.8407 59.168H67.6984C67.4526 59.1678 67.2091 59.2161 66.982 59.3102C66.7548 59.4042 66.5485 59.542 66.3746 59.7158C66.2008 59.8897 66.0629 60.0961 65.9689 60.3232C65.8749 60.5504 65.8266 60.7938 65.8267 61.0396V73.9295C65.8266 74.1753 65.8749 74.4188 65.9689 74.6459C66.0629 74.873 66.2008 75.0794 66.3746 75.2533C66.5485 75.4271 66.7548 75.5649 66.982 75.659C67.2091 75.753 67.4526 75.8013 67.6984 75.8011ZM69.5701 62.9113H82.969V72.0578H69.5701V62.9113Z" fill="white"/>
<path d="M76.2695 56.0471C77.7312 56.0471 79.1601 55.6137 80.3755 54.8015C81.5909 53.9894 82.5381 52.8352 83.0974 51.4847C83.6568 50.1342 83.803 48.6482 83.5178 47.2146C83.2326 45.7809 82.5286 44.4641 81.4949 43.4306C80.4612 42.3971 79.1443 41.6933 77.7106 41.4082C76.277 41.1232 74.791 41.2697 73.4406 41.8292C72.0902 42.3888 70.9361 43.3362 70.1241 44.5516C69.3122 45.7671 68.8789 47.1961 68.8791 48.6578C68.8814 50.6171 69.6608 52.4954 71.0463 53.8807C72.4318 55.266 74.3103 56.0451 76.2695 56.0471ZM76.2695 45.0107C76.9908 45.0107 77.696 45.2246 78.2957 45.6254C78.8955 46.0261 79.3629 46.5957 79.639 47.2621C79.915 47.9286 79.9872 48.6619 79.8465 49.3693C79.7058 50.0768 79.3584 50.7266 78.8484 51.2367C78.3383 51.7467 77.6885 52.0941 76.981 52.2348C76.2736 52.3755 75.5403 52.3033 74.8738 52.0273C74.2074 51.7512 73.6378 51.2838 73.2371 50.684C72.8364 50.0843 72.6225 49.3791 72.6225 48.6578C72.6236 47.6909 73.0082 46.7639 73.6919 46.0802C74.3756 45.3965 75.3026 45.0119 76.2695 45.0107Z" fill="white"/>
</svg>
