<svg width="100" height="100" viewBox="0 0 100 100" fill="none" xmlns="http://www.w3.org/2000/svg">
<g clip-path="url(#clip0_5_39)">
<path d="M80.7387 65.0601C80.2902 60.4315 78.9581 55.5973 76.8862 51.0814C75.0065 46.9685 72.5398 43.0344 69.5605 39.3979C68.7234 38.3707 67.873 37.387 67.4338 36.9333L66.4221 35.8276C66.1751 35.5444 65.9674 35.3171 65.7618 35.1156L65.459 34.8087C65.1283 34.4759 64.7873 34.1308 64.5041 33.7856C64.4824 33.7577 64.4587 33.7308 64.4338 33.704C64.2964 33.5531 64.1486 33.4022 63.9833 33.2338C63.7683 33.0157 63.5245 32.7729 63.3075 32.5001C63.2796 32.466 63.2506 32.4329 63.2217 32.3988C61.6799 30.704 60.383 29.1633 59.2586 27.6917C57.9421 25.9587 57.0121 24.5254 56.2391 23.0311C55.3442 21.3291 54.6745 19.4349 54.2508 17.3868C53.8488 15.5318 53.6143 13.403 53.5512 11.0521C53.4892 8.96463 53.6163 6.95882 53.7476 5.28577C53.8426 4.17177 53.9501 3.18592 54.0555 2.31477C54.1372 1.63584 53.8778 0.960001 53.3621 0.510477C52.8454 0.0599198 52.1407 -0.106456 51.4803 0.0681869C50.4945 0.325501 49.4838 0.666519 48.4835 1.07987C46.3826 1.93655 44.3158 3.12805 42.3379 4.62543C39.8154 6.5403 37.605 8.90573 35.7697 11.6514C33.5169 15.0069 31.9224 18.9534 31.1608 23.0508C30.2917 27.5594 30.3878 32.6468 31.4295 37.3673C32.4184 41.937 34.3333 46.6038 36.9746 50.8768C38.3707 53.1017 39.709 54.9618 41.0338 56.5233C41.4285 57.0141 42.5157 58.2831 42.527 58.2976L42.9611 58.7946C43.2649 59.1388 43.4819 59.3981 43.703 59.6627C43.9076 59.9055 44.0761 60.107 44.2642 60.3075L44.2962 60.3406C46.363 62.8125 47.8201 64.6271 49.0229 66.233C50.3519 68.0001 51.5206 69.7134 52.5943 71.4681C53.7383 73.3427 54.5557 74.9816 55.1654 76.6196C55.8536 78.4828 56.3062 80.502 56.516 82.6298C56.7093 84.5023 56.7103 86.6021 56.5212 89.0368C56.331 91.2451 55.9869 93.2582 55.7162 94.7328C55.5136 95.7414 55.3152 96.6725 55.1344 97.4765C54.9814 98.1575 55.1809 98.8705 55.6676 99.3707C56.0613 99.7768 56.5966 99.9969 57.1516 99.9969C57.2828 99.9969 57.4151 99.9845 57.5463 99.9597C58.5167 99.7695 59.4508 99.5215 60.3757 99.2074C62.5355 98.5047 64.6664 97.4827 66.7021 96.1775C69.3435 94.5075 71.7265 92.3663 73.786 89.819C76.2827 86.7313 78.2327 83.0245 79.4242 79.1028C80.7604 74.7398 81.2161 69.8808 80.7387 65.0601Z" fill="white"/>
<path d="M40.2195 77.717C39.3587 75.8342 38.2323 74.0361 36.8775 72.3837C36.5365 71.9652 36.1242 71.4846 35.9227 71.2759L35.4463 70.7551C35.3223 70.6156 35.2323 70.5184 35.1373 70.4223L35.0071 70.2911C34.8562 70.1402 34.7053 69.9862 34.5772 69.8333C34.5544 69.8064 34.5307 69.7785 34.5059 69.7527L34.3271 69.5667C34.2227 69.4592 34.1204 69.3548 34.0326 69.2453C34.0098 69.2174 33.9861 69.1895 33.9613 69.1626C33.2803 68.4155 32.6943 67.72 32.1787 67.0473C31.7426 66.4696 31.2373 65.7659 30.7908 64.9061C30.3827 64.129 30.0788 63.2671 29.8835 62.3278C29.7016 61.4835 29.5952 60.5121 29.5663 59.4405C29.5404 58.5507 29.59 57.7096 29.6303 57.1546C29.6831 56.422 29.342 55.7151 28.7344 55.3007C28.1268 54.8863 27.3455 54.8264 26.6811 55.1416C25.9163 55.5064 25.1651 55.9652 24.4458 56.5088C23.2946 57.384 22.2861 58.4629 21.4511 59.7133C20.7339 60.7808 19.7863 62.552 19.3471 64.9112C18.9492 66.9739 18.9916 69.299 19.467 71.4505C19.9186 73.539 20.7928 75.6709 22.0029 77.6292C22.6405 78.6429 23.2502 79.4913 23.8372 80.1837C24.0097 80.3976 24.3838 80.8306 24.5502 81.0238L24.5471 81.0269L24.7311 81.2357C24.8768 81.4 24.9791 81.5219 25.0793 81.6439C25.1661 81.7503 25.2405 81.8382 25.3097 81.9105L25.3418 81.9446C25.9794 82.7062 26.8009 83.7014 27.5026 84.6386C28.1123 85.4478 28.6445 86.229 29.1312 87.0278C29.651 87.8773 30.0241 88.6244 30.302 89.3726C30.6162 90.2241 30.8239 91.149 30.92 92.1266C31.0079 92.9791 31.0079 93.9381 30.9231 95.0356C30.8673 95.6876 30.7753 96.3759 30.6451 97.1395C30.518 97.8784 30.8022 98.6287 31.3861 99.0989C31.7591 99.3975 32.218 99.5535 32.6819 99.5535C32.9434 99.5535 33.2079 99.5039 33.458 99.4027C34.1773 99.1102 34.8893 98.7382 35.561 98.3073C36.7669 97.5477 37.8572 96.5681 38.8027 95.4004C39.9415 93.9929 40.8312 92.3002 41.3758 90.5104C41.9783 88.5438 42.1912 86.2652 41.9783 84.0971C41.7716 81.9839 41.164 79.7776 40.2195 77.717Z" fill="white"/>
</g>
<defs>
<clipPath id="clip0_5_39">
<rect width="100" height="99.999" fill="white"/>
</clipPath>
</defs>
</svg>
