<svg width="100" height="100" viewBox="0 0 100 100" fill="none" xmlns="http://www.w3.org/2000/svg">
<g clip-path="url(#clip0_5_59)">
<path d="M97.0703 0H40.0391C38.4211 0 37.1094 1.31172 37.1094 2.92969V33.4604C35.8664 33.3336 34.6156 33.2687 33.366 33.2684C30.8984 33.2684 28.4262 33.517 26.018 34.0074C24.6533 34.2854 23.6729 35.4854 23.6729 36.8781V41.8613C23.3471 41.9889 23.024 42.123 22.7037 42.2637L19.1793 38.7393C18.1947 37.7545 16.6525 37.5988 15.4912 38.3676C13.4432 39.7223 11.5193 41.2947 9.77305 43.041C8.02617 44.7879 6.45352 46.7119 5.09922 48.7598C4.33105 49.9211 4.48652 51.4629 5.47129 52.4475L8.99551 55.9719C8.85508 56.2922 8.7209 56.6152 8.59336 56.941H3.60938C2.2168 56.941 1.0166 57.9215 0.738672 59.2859C0.248633 61.6918 0 64.1643 0 66.6344C0 69.1043 0.248633 71.5766 0.738672 73.9826C1.0166 75.3471 2.2168 76.3275 3.60938 76.3275H8.59316C8.7209 76.6533 8.85508 76.9764 8.99531 77.2967L5.47109 80.8211C4.48652 81.8057 4.33086 83.3475 5.09902 84.5088C6.45352 86.5566 8.02598 88.4807 9.77305 90.2277C11.5191 91.9738 13.4432 93.5461 15.4912 94.901C16.6527 95.6693 18.1945 95.5141 19.1793 94.5293L22.7037 91.0049C23.024 91.1455 23.3471 91.2795 23.6729 91.4072V96.3904C23.6729 97.7832 24.6533 98.9832 26.018 99.2611C28.4262 99.7516 30.8984 100 33.3664 100H97.0703C98.6883 100 100 98.6885 100 97.0705V2.92969C100 1.31172 98.6883 0 97.0703 0V0ZM37.1094 72.7953C35.9859 73.4807 34.6928 73.85 33.366 73.85C29.3871 73.85 26.1502 70.6131 26.1502 66.6344C26.1502 62.6555 29.3873 59.4186 33.366 59.4186C34.6928 59.4186 35.9859 59.7881 37.1094 60.4732V72.7953ZM33.366 94.1406C32.0848 94.1406 30.8023 94.0609 29.5322 93.9031V89.3209C29.5322 88.0258 28.6818 86.8844 27.441 86.5137C26.0768 86.1063 24.7535 85.5568 23.5078 84.8807C22.3676 84.2617 20.9561 84.4664 20.0385 85.3838L16.7949 88.6273C15.7857 87.8414 14.8229 86.9908 13.9162 86.0844C13.0094 85.1775 12.1588 84.2146 11.373 83.2057L14.6166 79.9621C15.5342 79.0449 15.7389 77.6328 15.1197 76.4926C14.4436 75.2471 13.8943 73.924 13.4869 72.5598C13.1164 71.3188 11.9748 70.4682 10.6797 70.4682H6.09648C5.93887 69.1988 5.85938 67.916 5.85938 66.634C5.85938 65.352 5.93887 64.0693 6.09648 62.8002H10.6797C11.9748 62.8002 13.1164 61.9496 13.4869 60.7086C13.8943 59.3445 14.4436 58.0213 15.1197 56.7758C15.7389 55.6355 15.5342 54.224 14.6166 53.3063L11.373 50.0627C12.159 49.0537 13.0096 48.0906 13.9162 47.1844C14.8229 46.2775 15.7857 45.4272 16.7949 44.6412L20.0385 47.8846C20.9559 48.8022 22.3674 49.0068 23.5078 48.3877C24.7533 47.7115 26.0768 47.1621 27.441 46.7547C28.682 46.384 29.5322 45.2426 29.5322 43.9475V39.3652C32.0426 39.0533 34.5984 39.0498 37.1094 39.3549V54.1119C35.9035 53.7502 34.6439 53.5592 33.366 53.5592C26.1562 53.5592 20.2908 59.4246 20.2908 66.6344C20.2908 73.8439 26.1564 79.7094 33.366 79.7094C34.6439 79.7094 35.9035 79.5184 37.1094 79.1566V94.1404L33.366 94.1406ZM94.1406 94.1406H42.9688V5.85938H94.1406V94.1406Z" fill="white"/>
<path d="M56.6406 44.635V82.8125C56.6406 84.4305 57.9523 85.7422 59.5703 85.7422C61.1883 85.7422 62.5 84.4305 62.5 82.8125V44.635C66.1289 43.4094 68.75 39.975 68.75 35.9375C68.75 31.9 66.1289 28.4656 62.5 27.24V17.1875C62.5 15.5695 61.1883 14.2578 59.5703 14.2578C57.9523 14.2578 56.6406 15.5695 56.6406 17.1875V27.24C53.0117 28.4656 50.3906 31.9 50.3906 35.9375C50.3906 39.975 53.0117 43.4094 56.6406 44.635ZM59.5703 32.6172C61.4012 32.6172 62.8906 34.1068 62.8906 35.9375C62.8906 37.7678 61.4022 39.2566 59.5723 39.2578C59.5715 39.2578 59.5709 39.2576 59.5703 39.2576C59.5697 39.2576 59.5691 39.2578 59.5684 39.2578C57.7385 39.2566 56.25 37.7678 56.25 35.9375C56.25 34.1068 57.7395 32.6172 59.5703 32.6172Z" fill="white"/>
<path d="M75.1953 72.6937V82.8125C75.1953 84.4305 76.507 85.7422 78.125 85.7422C79.743 85.7422 81.0547 84.4305 81.0547 82.8125V72.8262C84.7852 71.6598 87.5 68.1725 87.5 64.0625C87.5 60.025 84.8789 56.5906 81.25 55.365V17.1875C81.25 15.5695 79.9383 14.2578 78.3203 14.2578C76.7023 14.2578 75.3906 15.5695 75.3906 17.1875V55.365C71.7617 56.5906 69.1406 60.025 69.1406 64.0625C69.1406 68.0275 71.6676 71.4127 75.1953 72.6937ZM78.3203 60.7422C80.1512 60.7422 81.6406 62.2318 81.6406 64.0625C81.6406 65.8934 80.1512 67.3828 78.3203 67.3828C76.4895 67.3828 75 65.8934 75 64.0625C75 62.2318 76.4895 60.7422 78.3203 60.7422Z" fill="white"/>
</g>
<defs>
<clipPath id="clip0_5_59">
<rect width="100" height="100" fill="white"/>
</clipPath>
</defs>
</svg>
