<svg width="100" height="100" viewBox="0 0 100 100" fill="none" xmlns="http://www.w3.org/2000/svg">
<path d="M45.2578 58.1656C45.0907 58.0581 44.7509 57.8559 44.7509 57.3496V11.7671C44.7509 5.27861 39.4723 0 32.9844 0C26.4961 0 21.2175 5.27861 21.2175 11.7671V57.3954C21.2175 57.8214 20.8758 58.0598 20.7073 58.168C14.2234 62.3318 10.2672 69.4963 10.2672 77.2823C10.2672 89.8091 20.4581 100 32.9844 100C45.5109 100 55.7015 89.8088 55.7015 77.2823C55.7015 69.4946 51.7439 62.3293 45.2578 58.1656ZM32.9844 95.8564C22.7429 95.8564 14.4107 87.524 14.4107 77.2823C14.4107 70.4059 18.1861 64.1215 24.2638 60.8821L24.5188 60.7462C24.5188 60.7462 25.361 60.4111 25.361 59.0647C25.361 47.2401 25.361 11.7671 25.361 11.7671C25.361 7.56337 28.7806 4.14355 32.9844 4.14355C37.1879 4.14355 40.6074 7.56337 40.6074 11.7671C40.6074 11.7671 40.6074 47.2531 40.6074 59.0816C40.6074 60.4111 41.501 60.7735 41.501 60.7735L41.7046 60.8821C47.7824 64.1215 51.558 70.4056 51.558 77.2823C51.558 87.524 43.2258 95.8564 32.9844 95.8564Z" fill="white"/>
<path d="M36.6428 68.5458C36.4392 68.4687 36.0229 68.3416 36.0229 67.651V20.8521C36.0229 19.1739 34.6625 17.8135 32.9843 17.8135C31.3062 17.8135 29.9457 19.1739 29.9457 20.8521V67.6508C29.9457 68.3184 29.4886 68.4828 29.2654 68.5687C25.3856 70.0662 22.6255 73.8346 22.6255 78.2364C22.6255 83.9485 27.2723 88.5953 32.9843 88.5953C38.6964 88.5953 43.3432 83.9485 43.3432 78.2364C43.3432 73.8122 40.5543 70.0275 36.6428 68.5458Z" fill="white"/>
<path d="M64.4566 12.565H80.7642C81.6797 12.565 82.4217 11.8227 82.4217 10.9075C82.4217 9.99237 81.6797 9.25012 80.7642 9.25012H64.4566C63.5414 9.25012 62.7992 9.99237 62.7992 10.9075C62.7992 11.823 63.5411 12.565 64.4566 12.565Z" fill="white"/>
<path d="M64.4566 23.2459H86.289C87.2044 23.2459 87.9464 22.5036 87.9464 21.5885C87.9464 20.6733 87.2044 19.931 86.289 19.931H64.4566C63.5414 19.931 62.7992 20.6733 62.7992 21.5885C62.7992 22.5039 63.5411 23.2459 64.4566 23.2459Z" fill="white"/>
<path d="M64.4566 33.9269H80.7642C81.6797 33.9269 82.4217 33.1847 82.4217 32.2695C82.4217 31.3543 81.6797 30.6121 80.7642 30.6121H64.4566C63.5414 30.6121 62.7992 31.3543 62.7992 32.2695C62.7992 33.1847 63.5411 33.9269 64.4566 33.9269Z" fill="white"/>
<path d="M86.289 44.6084C87.2044 44.6084 87.9464 43.8664 87.9464 42.951C87.9464 42.0358 87.2044 41.2936 86.289 41.2936H64.4566C63.5414 41.2936 62.7992 42.0358 62.7992 42.951C62.7992 43.8664 63.5414 44.6084 64.4566 44.6084H86.289Z" fill="white"/>
<path d="M89.0063 74.4105L79.4168 62.0022C78.7461 61.1348 77.7756 60.6373 76.7538 60.6373C75.7323 60.6373 74.7616 61.1351 74.0909 62.0025L64.5013 74.4102C63.7458 75.3878 63.5699 76.4737 64.0193 77.3892C64.469 78.3046 65.4353 78.83 66.6712 78.83H68.9325C69.2319 78.83 69.4849 79.0831 69.4849 79.3825V92.9957C69.4849 95.1283 71.2197 96.8631 73.3523 96.8631H79.6215C81.754 96.8631 83.4888 95.1283 83.4888 92.9957V79.3825C83.4888 79.0831 83.7418 78.83 84.0413 78.83H86.8365C88.0724 78.83 89.0387 78.3049 89.4884 77.3892C89.9378 76.4737 89.7618 75.3878 89.0063 74.4105ZM85.2741 75.5152C84.9661 75.5152 84.0413 75.5152 84.0413 75.5152C81.9087 75.5152 80.1739 77.2499 80.1739 79.3825V92.9957C80.1739 93.2952 79.9209 93.5482 79.6215 93.5482H73.3523C73.0528 93.5482 72.7998 93.2952 72.7998 92.9957V79.3825C72.7998 77.2499 71.065 75.5152 68.9325 75.5152C68.9325 75.5152 68.3568 75.5152 68.1648 75.5152C67.8496 75.5152 67.9689 75.3447 67.9689 75.3447L76.2853 64.5845C76.2853 64.5845 76.5168 64.2955 76.7541 64.2955C77.0044 64.2955 77.2375 64.6027 77.2375 64.6027L85.5244 75.3257C85.5241 75.326 85.6755 75.5152 85.2741 75.5152Z" fill="white"/>
</svg>
