<svg width="45" height="45" viewBox="0 0 45 45" fill="none" xmlns="http://www.w3.org/2000/svg">
<path d="M32.8188 0H12.1811C5.46431 0 0 5.46431 0 12.1811V32.8192C0 39.5356 5.46431 44.9999 12.1811 44.9999H32.8192C39.5356 44.9999 44.9999 39.5356 44.9999 32.8192V12.1811C44.9999 5.46431 39.5356 0 32.8188 0V0ZM42.3618 32.8192C42.3618 38.0809 38.0809 42.3618 32.8188 42.3618H12.1811C6.91897 42.3618 2.63809 38.0809 2.63809 32.8192V12.1811C2.63809 6.91897 6.91897 2.63809 12.1811 2.63809H32.8192C38.0809 2.63809 42.3618 6.91897 42.3618 12.1811V32.8192Z" fill="white"/>
<path d="M22.4999 10.1958C15.7152 10.1958 10.1956 15.7154 10.1956 22.5001C10.1956 29.2849 15.7152 34.8044 22.4999 34.8044C29.2847 34.8044 34.8043 29.2849 34.8043 22.5001C34.8043 15.7154 29.2847 10.1958 22.4999 10.1958ZM22.4999 32.1664C17.1702 32.1664 12.8337 27.8302 12.8337 22.5001C12.8337 17.1704 17.1702 12.8339 22.4999 12.8339C27.83 12.8339 32.1662 17.1704 32.1662 22.5001C32.1662 27.8302 27.83 32.1664 22.4999 32.1664Z" fill="white"/>
<path d="M35.0985 5.82568C33.0935 5.82568 31.4627 7.45681 31.4627 9.46146C31.4627 11.4665 33.0935 13.0976 35.0985 13.0976C37.1035 13.0976 38.7346 11.4665 38.7346 9.46146C38.7346 7.45646 37.1035 5.82568 35.0985 5.82568ZM35.0985 10.4592C34.5485 10.4592 34.1008 10.0115 34.1008 9.46146C34.1008 8.91112 34.5485 8.46377 35.0985 8.46377C35.6488 8.46377 36.0965 8.91112 36.0965 9.46146C36.0965 10.0115 35.6488 10.4592 35.0985 10.4592Z" fill="white"/>
</svg>
