<svg width="100" height="100" viewBox="0 0 100 100" fill="none" xmlns="http://www.w3.org/2000/svg">
<path d="M45.8246 30.6385C44.1457 23.1797 36.7375 18.4958 29.2787 20.1747C21.8205 21.8536 17.1367 29.2618 18.8156 36.72C20.4945 44.1788 27.9027 48.8627 35.3609 47.1838C35.3727 47.1818 35.3839 47.1778 35.3937 47.1759C42.8078 45.5417 47.4937 38.207 45.8594 30.7929C45.8476 30.741 45.8358 30.6884 45.8246 30.6385ZM32.2527 43.6472C26.7607 43.6768 22.2838 39.2466 22.2549 33.7538C22.2293 29.066 25.4826 24.9966 30.062 23.9886C30.7874 23.8236 31.528 23.7382 32.2725 23.7362C37.7632 23.8801 42.0982 28.4477 41.9543 33.9404C41.8379 38.3917 38.7791 42.2206 34.4633 43.318C33.7634 43.479 33.0478 43.5624 32.3303 43.5697L32.2527 43.6472Z" fill="white"/>
<path d="M95.9033 12.6075C95.2554 12.5805 94.6371 12.8789 94.2553 13.4026L87.9155 21.9909C86.4206 23.936 83.6581 24.3545 81.6533 22.9411C79.6583 21.4679 79.2332 18.6568 80.7031 16.6598L86.6742 8.55575C87.3379 7.714 87.194 6.49638 86.3529 5.83336C86.0809 5.62046 85.7576 5.48247 85.4139 5.43384C76.1198 4.02632 67.4434 10.4206 66.0359 19.7174C65.7336 21.7163 65.7901 23.754 66.2008 25.7332L63.9134 28.0212L62.4783 21.7005C62.2384 20.6577 61.1969 20.0058 60.1541 20.2463H60.1521L54.6265 21.5067C53.6685 19.7443 52.5034 18.1042 51.1557 16.6211L54.1804 11.8321C54.752 10.9266 54.4846 9.73066 53.5791 9.15635L45.2424 3.90213C44.3369 3.33045 43.141 3.59789 42.5673 4.50338L39.5427 9.31142C37.6509 8.74171 35.6986 8.39673 33.7266 8.28437L32.4854 2.75876C32.2455 1.71528 31.204 1.06409 30.1612 1.30459H30.1592L20.4649 3.49538C19.4162 3.70631 18.7354 4.73008 18.949 5.77882C18.9509 5.78671 18.9529 5.79459 18.9529 5.80248L20.252 11.2499C18.4897 12.2079 16.8489 13.373 15.3664 14.7207L10.5774 11.6961C9.67195 11.1244 8.47536 11.3918 7.9017 12.2973L2.64749 20.634C2.0758 21.5395 2.34325 22.7354 3.24874 23.3091L8.03773 26.3338C7.46736 28.2262 7.12238 30.1785 7.01001 32.1505L1.50412 33.5461C0.461295 33.7866 -0.190554 34.8275 0.0499466 35.871V35.873L2.22102 45.5666C2.46153 46.6094 3.50304 47.2613 4.54587 47.0208H4.54784L10.0734 45.7801C11.0315 47.5405 12.1965 49.1807 13.5436 50.6657L10.5196 55.4547C10.0117 56.3615 10.312 57.5075 11.1977 58.0523L19.5345 63.3065C19.8433 63.4983 20.1994 63.5995 20.5622 63.5976H20.892C21.3901 63.4832 21.8205 63.1764 22.0939 62.7446L25.1185 57.9557C27.0103 58.5254 28.9626 58.8703 30.9346 58.9827L31.3032 60.6117L26.8053 65.1096C25.6692 64.877 24.514 64.7606 23.3542 64.7606C13.9412 64.7744 6.32399 72.4153 6.33714 81.8277C6.34108 84.8753 7.16312 87.8671 8.71652 90.4883C9.26849 91.4056 10.4592 91.702 11.3765 91.1494C11.5933 91.0193 11.7832 90.8471 11.9344 90.6434L18.5849 81.6286C20.0812 79.6723 22.8581 79.2531 24.8662 80.6784C26.8421 82.1109 27.3074 84.8602 25.9136 86.8631L19.5739 95.4711C18.9628 96.351 19.1816 97.5588 20.0621 98.1699C20.3105 98.3427 20.5957 98.4531 20.892 98.4958C21.7765 98.6351 22.6715 98.7067 23.5678 98.7087C28.0847 98.7225 32.4216 96.9293 35.6073 93.7265C39.6557 89.661 41.3964 83.8364 40.2412 78.2162L79.4435 39.0336C80.5796 39.2663 81.7348 39.3826 82.8939 39.3826C92.307 39.3747 99.93 31.7398 99.9222 22.3267C99.9202 19.2285 99.0732 16.1907 97.4738 13.5386C97.138 12.9853 96.5486 12.6344 95.9033 12.6075ZM24.9825 53.7679C24.1217 53.4558 23.1604 53.787 22.6754 54.5624L19.8834 59.0024L14.8237 55.8424L17.615 51.4023C18.102 50.627 17.9817 49.617 17.3246 48.9789C15.4689 47.1739 13.9589 45.0448 12.8648 42.697C12.483 41.8618 11.5703 41.4097 10.674 41.6115L5.57555 42.7752L4.25674 36.9585L9.35588 35.7954C10.2574 35.5917 10.8915 34.7815 10.8685 33.8563C10.8429 31.264 11.2891 28.6875 12.1867 26.2562C12.4988 25.3954 12.167 24.4341 11.3916 23.9491L6.97124 21.138L10.151 16.0776L14.5904 18.8697C15.3625 19.3619 16.3725 19.2495 17.0138 18.5983C18.8189 16.7426 20.9479 15.2326 23.2957 14.1392C24.1237 13.7515 24.5672 12.8381 24.3622 11.9484L23.1985 6.84925L29.0152 5.53109L30.1783 10.6296C30.382 11.5311 31.1922 12.1652 32.1174 12.1422C34.709 12.1225 37.2822 12.5707 39.7175 13.4604C40.5776 13.7725 41.5396 13.4413 42.0246 12.6653L44.8159 8.22588L49.8763 11.4056L47.0843 15.845C46.598 16.6204 46.7183 17.6304 47.3754 18.2684C49.2599 20.0735 50.7969 22.2098 51.912 24.5694C52.2997 25.3974 53.2131 25.8416 54.1028 25.6359L59.202 24.4728L60.7527 31.2969L34.6571 57.3156L34.4632 56.5981C34.2595 55.6965 33.4493 55.0624 32.5241 55.0861C29.9515 55.1038 27.3967 54.6576 24.9825 53.7679ZM92.1999 31.6465C89.7416 34.1316 86.3897 35.528 82.8939 35.524C81.696 35.524 80.5014 35.3611 79.3462 35.0391C78.6556 34.8334 77.9091 35.0273 77.4071 35.5431L36.6928 76.2574C36.177 76.7594 35.9831 77.5065 36.1888 78.1965C37.4544 82.7759 36.1671 87.6825 32.8152 91.0501C30.6941 93.1851 27.8981 94.521 24.905 94.8311L29.0539 89.2089C31.7954 85.4963 31.0082 80.2651 27.2955 77.5236C25.8565 76.4611 24.1158 75.8894 22.3265 75.8894C19.6738 75.8973 17.1807 77.1537 15.5984 79.282L10.9264 85.6218C8.78551 78.6735 12.6848 71.3061 19.631 69.1659C22.0393 68.4234 24.6099 68.3885 27.0373 69.0647C27.7272 69.2704 28.4737 69.0765 28.9764 68.5607L69.6907 27.7492C70.2039 27.2471 70.4004 26.5007 70.1947 25.8107C68.9225 21.2313 70.2118 16.3221 73.5683 12.9564C75.6519 10.8609 78.3862 9.53484 81.3234 9.19577L77.5812 14.3527C74.8398 18.0674 75.6309 23.3019 79.3455 26.0433C83.0602 28.7848 88.2947 27.9936 91.0368 24.279L95.4177 18.3269C96.9323 23.0187 95.6897 28.1625 92.1999 31.6465Z" fill="white"/>
</svg>
