<svg width="100" height="100" viewBox="0 0 100 100" fill="none" xmlns="http://www.w3.org/2000/svg">
<path d="M89.3965 84.9893L83.0316 72.6676C82.6928 72.0115 82.0164 71.5994 81.2781 71.5992C81.2777 71.5992 81.2775 71.5992 81.2773 71.5992C80.5395 71.5992 79.8629 72.0108 79.5238 72.6662C75.1389 81.1393 72.8764 85.5211 72.7992 85.6897C72.2387 86.9137 71.9545 88.218 71.9545 89.5664C71.9545 94.7072 76.1367 98.8895 81.2773 98.8895C86.418 98.8895 90.6004 94.7072 90.6004 89.5664C90.6004 88.0602 90.2197 86.6092 89.4023 85.0008C89.4006 84.9971 89.3984 84.9932 89.3965 84.9893ZM81.2773 94.9406C78.3143 94.9406 75.9035 92.5299 75.9035 89.5666C75.9035 88.7979 76.0635 88.0545 76.3795 87.3567C76.5893 86.9385 79.0121 82.2502 81.2762 77.8737L85.8848 86.7953C86.415 87.8403 86.6516 88.6953 86.6516 89.5666C86.6514 92.5297 84.2408 94.9406 81.2773 94.9406Z" fill="white"/>
<path d="M75.0324 67.1164L86.65 61.9699C88.4858 61.1566 89.882 59.6723 90.5818 57.7904C91.2815 55.9086 91.1942 53.8727 90.3356 52.0576L87.8574 46.8178C87.4004 45.8514 86.258 45.4244 85.2789 45.8539L83.0733 46.8219L79.6635 40.007C73.8526 28.3768 59.3893 23.31 47.5869 28.8082L35.4744 34.367V21.5449L37.4656 13.9205C37.7647 13.1395 38.5176 12.6191 39.3592 12.6191H61.7385C69.7051 12.6191 74.5561 3.26816 74.7588 2.87012C75.0703 2.25801 75.0414 1.52793 74.6824 0.942383C74.3236 0.356836 73.6861 0 72.9992 0H25.425C24.4324 0 23.4119 0.0478516 22.3918 0.142383C18.3904 0.512891 15.3727 3.83887 15.3727 7.87832V21.2875C15.3727 21.2908 15.373 21.2939 15.3732 21.2973V47.3748C15.3732 48.4652 16.2572 49.3494 17.3479 49.3494C18.4383 49.3494 19.3225 48.4654 19.3225 47.3748V23.2625H31.5254V37.4455C31.5254 38.1182 31.8678 38.7445 32.434 39.1076C33.0002 39.4709 33.7125 39.5207 34.3234 39.24L49.2442 32.3924C59.1369 27.7838 71.259 32.0219 76.1313 41.7729L79.4522 48.4104L68.5389 53.1992L64.9346 46.7145C62.6549 42.6107 57.5623 41.0084 53.3399 43.0672L32.6342 53.1686C31.9559 53.4994 31.5254 54.1883 31.5254 54.9432V86.9541H19.3223V64.7322C19.3223 63.6418 18.4383 62.7576 17.3477 62.7576C16.2572 62.7576 15.373 63.6416 15.373 64.7322V86.9584C11.8168 87.0453 8.9502 89.9631 8.9502 93.5398V98.0254C8.9502 99.1158 9.83418 100 10.9248 100H40.31C41.4004 100 42.2846 99.116 42.2846 98.0254V93.5398C42.2846 89.9084 39.3303 86.9541 35.6988 86.9541H35.4742V56.1768L55.0709 46.6164C57.4063 45.4781 60.2223 46.3633 61.4826 48.6324L64.9067 54.793L63.8535 55.2551C63.3725 55.4662 62.9953 55.8605 62.8055 56.3506C62.616 56.8406 62.6295 57.3861 62.8432 57.8662L65.2918 63.3666C66.5147 66.1131 69.2221 67.7484 72.0531 67.7484C73.0508 67.7486 74.0639 67.5455 75.0324 67.1164ZM19.3219 7.87832C19.3219 5.89121 20.7984 4.25605 22.7563 4.07461C23.6557 3.99121 24.5537 3.94902 25.4252 3.94902H69.3293C67.6391 6.09883 64.9463 8.67012 61.7387 8.67012H39.3594C36.8152 8.67012 34.5459 10.2844 33.7127 12.6869C33.6957 12.7357 33.6809 12.785 33.6678 12.835L31.976 19.3127H19.3219V7.87832ZM38.3356 93.54V96.051H12.8994V93.54C12.8994 92.0863 14.0822 90.9035 15.5359 90.9035H35.6988C37.1527 90.9033 38.3356 92.0861 38.3356 93.54ZM68.8996 61.7607L67.2582 58.0738L85.108 50.2414L86.7656 53.7459C87.1652 54.5906 87.2059 55.5381 86.8803 56.4141C86.5547 57.2898 85.9047 57.9807 85.0502 58.3592L73.4326 63.5057C71.7027 64.2723 69.6692 63.4895 68.8996 61.7607Z" fill="white"/>
<path d="M15.5248 56.6532C16.1879 58.2721 18.5644 58.23 19.189 56.6083C19.849 54.895 17.9074 53.2618 16.3328 54.2048C15.5053 54.7003 15.1539 55.7632 15.5248 56.6532Z" fill="white"/>
</svg>
